<svg width="32" height="32" viewBox="0 0 32 32" fill="none" xmlns="http://www.w3.org/2000/svg">
  <rect width="32" height="32" rx="8" fill="#9945FF"/>
  <path d="M6.5 8.5C6.5 7.67157 7.17157 7 8 7H24C24.8284 7 25.5 7.67157 25.5 8.5C25.5 9.32843 24.8284 10 24 10H8C7.17157 10 6.5 9.32843 6.5 8.5Z" fill="white"/>
  <path d="M6.5 16C6.5 15.1716 7.17157 14.5 8 14.5H24C24.8284 14.5 25.5 15.1716 25.5 16C25.5 16.8284 24.8284 17.5 24 17.5H8C7.17157 17.5 6.5 16.8284 6.5 16Z" fill="white"/>
  <path d="M6.5 23.5C6.5 22.6716 7.17157 22 8 22H24C24.8284 22 25.5 22.6716 25.5 23.5C25.5 24.3284 24.8284 25 24 25H8C7.17157 25 6.5 24.3284 6.5 23.5Z" fill="white"/>
</svg>
