<svg xmlns="http://www.w3.org/2000/svg" xmlns:xlink="http://www.w3.org/1999/xlink" width="500" zoomAndPan="magnify" viewBox="0 0 375 374.999991" height="500" preserveAspectRatio="xMidYMid meet" version="1.0"><defs><clipPath id="a4ac1fba44"><path d="M 29.449219 29.449219 L 345.199219 29.449219 L 345.199219 345.199219 L 29.449219 345.199219 Z M 29.449219 29.449219 " clip-rule="nonzero"/></clipPath><clipPath id="6419e416ae"><path d="M 29.449219 29.449219 L 345.199219 29.449219 L 345.199219 345.199219 L 29.449219 345.199219 Z M 29.449219 29.449219 " clip-rule="nonzero"/></clipPath></defs><g clip-path="url(#a4ac1fba44)"><path fill="#ffffff" d="M 197.230469 197.226562 L 345.09375 187.273438 L 197.230469 177.316406 L 187.269531 29.449219 L 177.3125 177.316406 L 29.449219 187.273438 L 177.3125 197.226562 L 187.269531 345.09375 Z M 197.230469 197.226562 " fill-opacity="1" fill-rule="nonzero"/></g><path fill="#ffffff" d="M 187.269531 195.128906 L 249.546875 249.539062 L 195.128906 187.273438 L 249.546875 125 L 187.269531 179.417969 L 125 125 L 179.414062 187.273438 L 125 249.539062 Z M 187.269531 195.128906 " fill-opacity="1" fill-rule="nonzero"/><g clip-path="url(#6419e416ae)"><path fill="#ffffff" d="M 197.230469 197.226562 L 345.09375 187.273438 L 197.230469 177.316406 L 187.269531 29.449219 L 177.3125 177.316406 L 29.449219 187.273438 L 177.3125 197.226562 L 187.269531 345.09375 Z M 197.230469 197.226562 " fill-opacity="1" fill-rule="nonzero"/></g><path fill="#ffffff" d="M 187.269531 195.128906 L 249.546875 249.539062 L 195.128906 187.273438 L 249.546875 125 L 187.269531 179.417969 L 125 125 L 179.414062 187.273438 L 125 249.539062 Z M 187.269531 195.128906 " fill-opacity="1" fill-rule="nonzero"/></svg>